# xmcd
# 
# Track frame offsets:
#	150
#	35716
#	66066
#	118978
#	143729
#	177430
#
# Disc length: 2829 seconds
#
# Revision: 1
# Processed by: cddbd v1.4PL0 Copyright (c) Steve Scherf et al.
# Submitted via: Audio-CD-Archiv 2.10.446
#
DISCID=580b0b06
DTITLE=Eric Clapton - E.C. Was Here
DYEAR=1900
DGENRE=blues
TTITLE0=Have You Ever Loved A Woman
TTITLE1=Presence Of The Lord
TTITLE2=Drifting Blues
TTITLE3=Can't Find My Way Home
TTITLE4=Rambling On My Mind
TTITLE5=Further On Up The Road
EXTD=
EXTT0=
EXTT1=
EXTT2=
EXTT3=
EXTT4=
EXTT5=
PLAYORDER=
